<?xml version="1.0" encoding="UTF-8"?>
<svg id="Layer_1" data-name="Layer 1" xmlns="http://www.w3.org/2000/svg" xmlns:xlink="http://www.w3.org/1999/xlink" viewBox="0 0 48 48.24">
  <defs>
    <style>
      .cls-1 {
        fill: url(#linear-gradient);
      }
    </style>
    <linearGradient id="linear-gradient" x1="0" y1="24" x2="48" y2="24" gradientUnits="userSpaceOnUse">
      <stop offset="0" stop-color="#fb747b"/>
      <stop offset="1" stop-color="#ffc33e"/>
    </linearGradient>
  </defs>
  <rect class="cls-1" width="48" height="48"/>
  <g>
    <path d="M10.67,14l-2.52-3.55h-.86v3.55h-1.15V5.6h2.49c1.28,0,2.87.67,2.87,2.41,0,1.43-1.02,2.15-2.05,2.36l2.66,3.62h-1.44ZM8.57,6.64h-1.28v2.78h1.04c1.12,0,1.94-.41,1.94-1.37,0-.85-.68-1.42-1.7-1.42Z"/>
    <path d="M10.23,24.24c-2.51,0-4.51-1.69-4.51-4.34,0-2.48,2.03-4.34,4.51-4.34.83,0,1.6.24,2.25.65l-.54.89c-.5-.31-1.09-.5-1.72-.5-1.9,0-3.29,1.39-3.29,3.31,0,2.04,1.37,3.31,3.29,3.31.66,0,1.27-.19,1.86-.59l.61.85c-.72.49-1.57.77-2.47.77Z"/>
    <path d="M11.32,34.2l-.66-1.79h-3.57l-.65,1.79h-1.26l3.25-8.4h1.01l3.21,8.4h-1.33ZM7.47,31.38h2.82l-1.4-3.83h-.01l-1.4,3.83Z"/>
    <path d="M8.65,40.94h-1.36v3.36h-1.15v-8.4h2.51c1.36,0,2.96.67,2.96,2.51s-1.6,2.53-2.96,2.53ZM8.59,36.94h-1.3v2.97h1.06c1.16,0,2.04-.38,2.04-1.46,0-.95-.73-1.51-1.8-1.51Z"/>
  </g>
</svg>